Format                           : AVI
Format/Info                      : Audio Video Interleave
File size                        : 1.93 GiB
Duration                         : 1h 44mn
Overall bit rate                 : 2 652 Kbps
Writing library                  : VirtualDub build 32839/release

Video
ID                               : 0
Format                           : MPEG-4 Visual
Format profile                   : Advanced Simple@L5
Format settings, BVOP            : Yes
Format settings, QPel            : No
Format settings, GMC             : No warppoints
Format settings, Matrix          : Custom
Codec ID                         : XVID
Codec ID/Hint                    : XviD
Duration                         : 1h 44mn
Bit rate                         : 2 386 Kbps
Width                            : 720 pixels
Height                           : 384 pixels
Display aspect ratio             : 1.875
Frame rate                       : 25.000 fps
Color space                      : YUV
Chroma subsampling               : 4:2:0
Bit depth                        : 8 bits
Scan type                        : Progressive
Bits/(Pixel*Frame)               : 0.345
Stream size                      : 1.74 GiB (90%)
Writing library                  : XviD 1.2.1 (UTC 2008-12-04)

Audio
ID                               : 1
Format                           : AC-3
Format/Info                      : Audio Coding 3
Mode extension                   : CM (complete main)
Codec ID                         : 2000
Duration                         : 1h 44mn
Bit rate mode                    : Constant
Bit rate                         : 256 Kbps
Channel(s)                       : 2 channels
Channel positions                : Front: L R
Sampling rate                    : 48.0 KHz
Bit depth                        : 16 bits
Stream size                      : 191 MiB (10%)
Alignment                        : Aligned on interleaves
Interleave, duration             : 40 ms (1.00 video frame)
Interleave, preload duration     : 512 ms




[url]http://www.imdb.com/title/tt0881320/[/url]





Storyline

The 3-D action-thriller Sanctum follows a team of underwater cave divers on a treacherous expedition to the largest, most beautiful and least accessible cave system on Earth. When a tropical storm forces them deep into the caverns, they must fight raging water, deadly terrain and creeping panic as they search for an unknown escape route to the sea. Master diver Frank McGuire has explored the South Pacific's Esa-ala Caves for months. But when his exit is cut off in a flash flood, Frank's team-including 17-year-old son Josh and financier Carl Hurley are forced to radically alter plans. With dwindling supplies, the crew must navigate an underwater labyrinth to make it out. Soon, they are confronted with the unavoidable question: Can they survive, or will they be trapped forever?

Users: 5.7/10 (3,392 votes) 78 reviews | Critics: 118 reviews Metascore: 42/100 (based on 33 reviews from Metacritic.com)


Director:
Alister Grierson
Writers:
John Garvin (screenplay), Andrew Wight (screenplay), and 1 more credit »
Stars:
Rhys Wakefield, Allison Cratchley and Christopher Baker 






[img]http://img535.imageshack.us/img535/5181/vlcsnap2011022415h43m20.png[/img]

[img]http://img340.imageshack.us/img340/6734/vlcsnap2011022416h06m59.png[/img]

[img]http://img87.imageshack.us/img87/6711/vlcsnap2011022415h33m07.png[/img]

[img]http://img810.imageshack.us/img810/2369/vlcsnap2011022415h44m16.png[/img]



SOURCES:



VIDEO: ELEKTRI4KA... Thanks

AUDIO: Imagine .... Thanks yet again guys 

Loads of copies of this out now but just took my time and went for a high vid birate good quality R5 .Ran a few filters the way i like to do stuff.If your not bored heres another copy thrown in 

Enjoy !




Greetz to Imagine ,Flawl3ss ,Santi ,Vision ,Kingdom, BDK, TOXiC, iNK, THC, Ez, Rx,





